<svg xmlns="http://www.w3.org/2000/svg" viewBox="0 0 333334 251323" shape-rendering="geometricPrecision" text-rendering="geometricPrecision" image-rendering="optimizeQuality" fill-rule="evenodd" clip-rule="evenodd"><path d="M0 106789h67358v119844H0V106789zM221711 0c33094 0 59965 26836 59965 59966 0 33094-26836 59966-59965 59966-33094 0-59966-26836-59966-59966C161745 26872 188581 0 221711 0zm7073 74775c0-2254-552-4012-1657-5293-1121-1278-3054-2486-5846-3621-2776-1132-5350-2282-7705-3444-2357-1164-4391-2516-6093-4057-1701-1529-3009-3301-3927-5323-900-2006-1350-4449-1350-7327 0-4798 1614-8754 4856-11849 3227-3112 7547-4930 12939-5438v-6452h6774v6625c5192 757 9276 2896 12243 6413 2965 3505 4464 7953 4464 13347h-14408c0-2950-566-5218-1702-6819-1133-1583-2747-2383-4857-2383-1876 0-3329 595-4359 1772-1034 1178-1558 2792-1558 4871 0 2109 597 3765 1788 5003 1192 1235 3112 2411 5743 3545 2646 1120 5133 2285 7487 3491 2342 1208 4363 2576 6063 4100 1702 1541 3041 3331 4001 5380 974 2035 1454 4492 1454 7357 0 4856-1542 8826-4625 11894-3082 3067-7270 4856-12590 5365v6029h-6761v-6074c-6195-654-10949-2775-14249-6368-3315-3591-4972-8331-4972-14204h14366c0 3242 710 5698 2150 7400 1424 1686 3462 2531 6106 2531 1935 0 3446-583 4567-1730 1104-1149 1657-2736 1657-4741zM80916 216573V116412h45051c19099 3425 38198 13780 57297 25805h34991c15839 955 24133 17007 8747 27556-12274 8996-28460 8487-45050 6998-11442-563-11943 14819 0 14870 4140 321 8653-650 12588-654 20711-20 37770-3980 48209-20340l5248-12246 52049-25806c26047-8577 44556 18670 25369 37615-37699 27429-76367 50000-115908 68231-28722 17470-57443 16877-86165 0l-42426-21869z"/></svg>